# xmcd CD database file
#
# Track frame offsets:
#	150
#	18678
#	29465
#	46185
#	60770
#	83973
#	99845
#	113318
#	138320
#	149573
#
# Disc length: 2185 seconds
#
# Revision: 0
# Processed by: cddbd v1.5.2PL0 Copyright (c) Steve Scherf et al.
# Submitted via: CDex 1.79
#
DISCID=7708870a
DTITLE=Jo Cuba Sextet - The Best of Joe Cuba
DYEAR=1969
DGENRE=Salsa
TTITLE0=Bang, Bang
TTITLE1=I'm Insane
TTITLE2=La Malanga Brava
TTITLE3=Psychedelic Baby
TTITLE4=Hey Joe, Hey Joe
TTITLE5=Alafia
TTITLE6=Talk About Love
TTITLE7=El Pito (I'll Never Go Back To Georgia)
TTITLE8=T.C.O.B.
TTITLE9=To Be With You
EXTD=YEAR: 1969
EXTT0=
EXTT1=
EXTT2=
EXTT3=
EXTT4=
EXTT5=
EXTT6=
EXTT7=
EXTT8=
EXTT9=
PLAYORDER=
